<svg width="671" height="251" viewBox="0 0 671 251" fill="none" xmlns="http://www.w3.org/2000/svg">
<mask id="path-1-inside-1" fill="white">
        <path d="M123.457 0.345673C55.4184 0.345673 0 56.4568 0 125.346C0 194.235 55.4184 250.346 123.457 250.346C191.495 250.346 246.914 194.235 246.914 125.346C246.914 56.179 191.495 0.345673 123.457 0.345673ZM219.479 140.068L226.612 139.512L230.453 142.846L227.984 145.346L230.453 147.29V150.901L227.161 157.012L222.222 158.123L213.992 158.679L212.894 163.679L209.877 167.012L211.797 170.346L211.523 177.29L209.053 181.457L210.7 187.012L205.213 186.735L204.115 184.235L198.08 181.457L193.69 183.123L191.221 180.346L183.813 177.012L176.68 176.457L170.645 177.568L156.927 183.957L155.007 187.29L149.246 189.235L146.502 191.179L137.174 190.068H133.059L128.395 188.401L124.554 190.068L119.89 188.679L113.306 192.012L105.35 188.957L102.881 189.512L100.412 186.735L94.1015 186.457L88.6145 190.346L86.1454 186.179L87.7915 183.679L88.0658 180.068L85.048 177.29L78.738 176.735L77.3663 171.735L76.5432 168.123L80.3841 163.679L72.428 162.012L68.5871 167.29L65.0206 163.957L60.0823 165.901L57.8875 162.012L50.2058 159.512L49.1084 157.012L51.8519 151.179L45.8162 146.457L39.7805 143.123L38.1344 138.957L30.727 130.068L29.3553 127.012L24.9657 125.623L29.6296 120.901L33.7449 119.79L35.9396 115.623L42.2497 116.179L46.3649 112.012L46.0905 107.29L54.321 94.7901L59.2593 80.3457L64.1975 71.179L69.6845 70.0679L72.1536 64.7901L71.3306 63.4012L75.9945 63.1234L79.0123 60.3457H83.6763L92.1811 65.3457L98.7654 65.6234L105.075 68.4012L107.27 72.0123L112.209 74.5123L119.616 72.0123L124.554 71.7346L128.395 67.0123L144.033 64.2346L149.52 60.9012L164.06 58.4012L166.804 68.9568L176.132 77.5679L177.229 82.2901L189.575 92.2901L191.221 98.679L195.336 105.623L194.239 127.846L197.257 134.235L201.372 141.457L207.682 142.846L216.187 143.123L219.479 140.068Z" />
      </mask>
      <path
        d="M123.457 0.345673C55.4184 0.345673 0 56.4568 0 125.346C0 194.235 55.4184 250.346 123.457 250.346C191.495 250.346 246.914 194.235 246.914 125.346C246.914 56.179 191.495 0.345673 123.457 0.345673ZM219.479 140.068L226.612 139.512L230.453 142.846L227.984 145.346L230.453 147.29V150.901L227.161 157.012L222.222 158.123L213.992 158.679L212.894 163.679L209.877 167.012L211.797 170.346L211.523 177.29L209.053 181.457L210.7 187.012L205.213 186.735L204.115 184.235L198.08 181.457L193.69 183.123L191.221 180.346L183.813 177.012L176.68 176.457L170.645 177.568L156.927 183.957L155.007 187.29L149.246 189.235L146.502 191.179L137.174 190.068H133.059L128.395 188.401L124.554 190.068L119.89 188.679L113.306 192.012L105.35 188.957L102.881 189.512L100.412 186.735L94.1015 186.457L88.6145 190.346L86.1454 186.179L87.7915 183.679L88.0658 180.068L85.048 177.29L78.738 176.735L77.3663 171.735L76.5432 168.123L80.3841 163.679L72.428 162.012L68.5871 167.29L65.0206 163.957L60.0823 165.901L57.8875 162.012L50.2058 159.512L49.1084 157.012L51.8519 151.179L45.8162 146.457L39.7805 143.123L38.1344 138.957L30.727 130.068L29.3553 127.012L24.9657 125.623L29.6296 120.901L33.7449 119.79L35.9396 115.623L42.2497 116.179L46.3649 112.012L46.0905 107.29L54.321 94.7901L59.2593 80.3457L64.1975 71.179L69.6845 70.0679L72.1536 64.7901L71.3306 63.4012L75.9945 63.1234L79.0123 60.3457H83.6763L92.1811 65.3457L98.7654 65.6234L105.075 68.4012L107.27 72.0123L112.209 74.5123L119.616 72.0123L124.554 71.7346L128.395 67.0123L144.033 64.2346L149.52 60.9012L164.06 58.4012L166.804 68.9568L176.132 77.5679L177.229 82.2901L189.575 92.2901L191.221 98.679L195.336 105.623L194.239 127.846L197.257 134.235L201.372 141.457L207.682 142.846L216.187 143.123L219.479 140.068Z"
        fill="#FBDE37"
        stroke="black"
        strokeWidth="2"
        mask="url(#path-1-inside-1)"
      />
      <path
        d="M265.428 89.3C265.562 92.1667 266.295 94.7667 267.628 97.1C269.028 99.4333 270.895 101.433 273.228 103.1C275.628 104.7 278.428 105.967 281.628 106.9C284.828 107.767 288.328 108.2 292.128 108.2C295.995 108.2 299.462 107.733 302.528 106.8C305.662 105.867 308.328 104.533 310.528 102.8C312.728 101.067 314.428 98.9667 315.628 96.5C316.828 94.0333 317.428 91.3 317.428 88.3C317.428 84.1667 316.395 80.8 314.328 78.2C312.262 75.5333 309.662 73.3333 306.528 71.6C303.462 69.8 300.095 68.3 296.428 67.1C292.828 65.9 289.462 64.6333 286.328 63.3C283.262 61.9667 280.695 60.4333 278.628 58.7C276.562 56.9667 275.528 54.6667 275.528 51.8C275.528 50.2 275.862 48.7 276.528 47.3C277.262 45.9 278.295 44.7 279.628 43.7C281.028 42.6333 282.728 41.8 284.728 41.2C286.728 40.5333 289.028 40.2 291.628 40.2C295.962 40.2 299.628 41.1333 302.628 43C305.695 44.8 307.495 47.6667 308.028 51.6H314.828C314.428 49.1333 313.528 46.9333 312.128 45C310.728 43 308.962 41.3333 306.828 40C304.695 38.6 302.262 37.5667 299.528 36.9C296.862 36.1667 294.062 35.8 291.128 35.8C288.062 35.8 285.128 36.2 282.328 37C279.595 37.8 277.162 38.9667 275.028 40.5C272.962 42.0333 271.295 43.9667 270.028 46.3C268.828 48.6333 268.228 51.3 268.228 54.3C268.228 58.2333 269.228 61.4 271.228 63.8C273.228 66.2 275.728 68.2 278.728 69.8C281.795 71.4 285.095 72.7667 288.628 73.9C292.162 75.0333 295.428 76.3333 298.428 77.8C301.495 79.2 304.028 80.9333 306.028 83C308.028 85.0667 309.028 87.8333 309.028 91.3C309.028 95.6333 307.428 98.8 304.228 100.8C301.095 102.8 296.895 103.8 291.628 103.8C287.428 103.8 284.062 103.267 281.528 102.2C278.995 101.067 277.062 99.7333 275.728 98.2C274.395 96.6667 273.495 95.1 273.028 93.5C272.562 91.8333 272.295 90.4333 272.228 89.3H265.428Z"
        fill="#283673"
      />
      <path
        d="M376.628 84.2V82.1C376.628 77.6333 375.995 73.7667 374.728 70.5C373.462 67.2333 371.728 64.5333 369.528 62.4C367.395 60.2667 364.895 58.6667 362.028 57.6C359.162 56.5333 356.128 56 352.928 56C349.528 56 346.395 56.6 343.528 57.8C340.662 58.9333 338.162 60.6333 336.028 62.9C333.895 65.1 332.228 67.8 331.028 71C329.828 74.1333 329.228 77.7 329.228 81.7C329.228 85.0333 329.728 88.3 330.728 91.5C331.795 94.6333 333.362 97.4667 335.428 100C337.562 102.467 340.228 104.467 343.428 106C346.695 107.467 350.528 108.2 354.928 108.2C359.195 108.2 363.128 107.467 366.728 106C370.328 104.467 373.462 102.3 376.128 99.5L372.928 96.3C371.528 97.5 370.195 98.6 368.928 99.6C367.728 100.6 366.495 101.433 365.228 102.1C363.962 102.767 362.628 103.3 361.228 103.7C359.895 104.033 358.395 104.2 356.728 104.2C354.862 104.2 352.862 103.933 350.728 103.4C348.662 102.8 346.728 101.767 344.928 100.3C343.128 98.8333 341.628 96.8 340.428 94.2C339.228 91.6 338.628 88.2667 338.628 84.2H376.628ZM338.628 80.2C338.628 77.5333 338.895 74.9667 339.428 72.5C340.028 69.9667 340.895 67.7333 342.028 65.8C343.228 63.8667 344.728 62.3333 346.528 61.2C348.328 60 350.462 59.4 352.928 59.4C357.662 59.4 361.328 61.2667 363.928 65C366.595 68.6667 367.928 73.7333 367.928 80.2H338.628Z"
        fill="#283673"
      />
      <path
        d="M389.65 57V107H398.15V76.8C398.15 74.0667 398.45 71.7667 399.05 69.9C399.717 67.9667 400.55 66.4 401.55 65.2C402.55 64 403.65 63.1333 404.85 62.6C406.05 62.0667 407.217 61.8 408.35 61.8C409.884 61.8 411.284 62.3 412.55 63.3C413.884 64.3 414.85 65.2333 415.45 66.1L418.85 59.9C418.25 59.1 417.517 58.4333 416.65 57.9C415.85 57.3667 415.017 56.9667 414.15 56.7C413.35 56.3667 412.584 56.1667 411.85 56.1C411.184 55.9667 410.684 55.9 410.35 55.9C407.55 55.9 405.217 56.6667 403.35 58.2C401.484 59.7333 399.95 62 398.75 65H398.15V57H389.65Z"
        fill="#283673"
      />
      <path d="M421.834 57L442.634 107H448.634L468.834 57H464.134L447.934 97.1H447.334L430.634 57H421.834Z" fill="#283673" />
      <path
        d="M482.01 57V107H490.51V57H482.01ZM480.81 41.2C480.81 42.6667 481.344 43.9333 482.41 45C483.477 46.0667 484.744 46.6 486.21 46.6C487.677 46.6 488.944 46.0667 490.01 45C491.077 43.9333 491.61 42.6667 491.61 41.2C491.61 39.7333 491.077 38.4667 490.01 37.4C488.944 36.3333 487.677 35.8 486.21 35.8C484.744 35.8 483.477 36.3333 482.41 37.4C481.344 38.4667 480.81 39.7333 480.81 41.2Z"
        fill="#283673"
      />
      <path
        d="M534.672 103C532.272 103 529.939 102.633 527.672 101.9C525.472 101.167 523.505 100 521.772 98.4C520.039 96.7333 518.639 94.5667 517.572 91.9C516.572 89.1667 516.072 85.8333 516.072 81.9C516.072 77.8333 516.639 74.4 517.772 71.6C518.905 68.7333 520.306 66.4667 521.972 64.8C523.706 63.0667 525.605 61.8333 527.672 61.1C529.739 60.3 531.705 59.9 533.572 59.9C536.639 59.9 539.305 60.7 541.572 62.3C543.839 63.9 545.339 65.8667 546.072 68.2H552.972C552.306 65.8 551.239 63.8333 549.772 62.3C548.305 60.7 546.605 59.4333 544.672 58.5C542.805 57.5 540.772 56.8333 538.572 56.5C536.439 56.1 534.372 55.9 532.372 55.9C528.172 55.9 524.472 56.6 521.272 58C518.072 59.3333 515.372 61.1667 513.172 63.5C510.972 65.8333 509.305 68.5667 508.172 71.7C507.105 74.8333 506.572 78.1667 506.572 81.7C506.572 85.4333 507.172 88.9333 508.372 92.2C509.572 95.4 511.272 98.2 513.472 100.6C515.739 102.933 518.439 104.8 521.572 106.2C524.705 107.533 528.239 108.2 532.172 108.2C536.572 108.2 540.405 107.467 543.672 106C547.005 104.533 549.805 102.933 552.072 101.2L549.172 97.4C546.839 99.3333 544.505 100.767 542.172 101.7C539.905 102.567 537.405 103 534.672 103Z"
        fill="#283673"
      />
      <path
        d="M567.167 57V107H575.667V57H567.167ZM565.967 41.2C565.967 42.6667 566.5 43.9333 567.567 45C568.633 46.0667 569.9 46.6 571.367 46.6C572.833 46.6 574.1 46.0667 575.167 45C576.233 43.9333 576.767 42.6667 576.767 41.2C576.767 39.7333 576.233 38.4667 575.167 37.4C574.1 36.3333 572.833 35.8 571.367 35.8C569.9 35.8 568.633 36.3333 567.567 37.4C566.5 38.4667 565.967 39.7333 565.967 41.2Z"
        fill="#283673"
      />
      <path
        d="M597.928 57V107H606.428V57H597.928ZM596.728 41.2C596.728 42.6667 597.262 43.9333 598.328 45C599.395 46.0667 600.662 46.6 602.128 46.6C603.595 46.6 604.862 46.0667 605.928 45C606.995 43.9333 607.528 42.6667 607.528 41.2C607.528 39.7333 606.995 38.4667 605.928 37.4C604.862 36.3333 603.595 35.8 602.128 35.8C600.662 35.8 599.395 36.3333 598.328 37.4C597.262 38.4667 596.728 39.7333 596.728 41.2Z"
        fill="#283673"
      />
      <path
        d="M273.728 154V224H282.828V193.1H287.228C289.095 193.1 290.628 193.267 291.828 193.6C293.095 193.933 294.228 194.5 295.228 195.3C296.228 196.1 297.162 197.133 298.028 198.4C298.895 199.667 299.928 201.233 301.128 203.1L309.028 214.8C310.028 216.333 310.995 217.733 311.928 219C312.928 220.267 313.995 221.367 315.128 222.3C316.262 223.167 317.528 223.867 318.928 224.4C320.395 224.933 322.128 225.2 324.128 225.2C325.595 225.2 326.795 225.133 327.728 225C328.662 224.867 329.595 224.533 330.528 224V220.3C330.195 220.367 329.862 220.433 329.528 220.5C329.195 220.5 328.862 220.5 328.528 220.5C327.128 220.5 325.895 220.3 324.828 219.9C323.762 219.5 322.762 218.933 321.828 218.2C320.895 217.4 319.995 216.467 319.128 215.4C318.262 214.267 317.362 213 316.428 211.6C313.628 207.533 311.462 204.3 309.928 201.9C308.395 199.433 307.162 197.533 306.228 196.2C305.362 194.867 304.628 193.9 304.028 193.3C303.495 192.7 302.828 192.2 302.028 191.8L301.028 191.3V190.9C304.228 190.7 306.962 190 309.228 188.8C311.562 187.6 313.462 186.1 314.928 184.3C316.395 182.5 317.462 180.567 318.128 178.5C318.795 176.367 319.128 174.3 319.128 172.3C319.128 170.5 318.762 168.533 318.028 166.4C317.362 164.267 316.162 162.3 314.428 160.5C312.762 158.633 310.462 157.1 307.528 155.9C304.595 154.633 300.895 154 296.428 154H273.728ZM282.828 158.4H292.928C295.462 158.4 297.728 158.767 299.728 159.5C301.795 160.233 303.562 161.267 305.028 162.6C306.495 163.867 307.595 165.4 308.328 167.2C309.128 169 309.528 170.967 309.528 173.1C309.528 174.9 309.162 176.733 308.428 178.6C307.762 180.4 306.728 182.067 305.328 183.6C303.928 185.067 302.195 186.267 300.128 187.2C298.128 188.133 295.795 188.6 293.128 188.6H282.828V158.4Z"
        fill="#283673"
      />
      <path
        d="M390.306 199.1C390.306 202.567 389.706 205.9 388.506 209.1C387.306 212.233 385.572 215 383.306 217.4C381.106 219.8 378.406 221.7 375.206 223.1C372.072 224.5 368.539 225.2 364.606 225.2C360.606 225.2 356.972 224.5 353.706 223.1C350.506 221.633 347.772 219.7 345.506 217.3C343.306 214.9 341.572 212.133 340.306 209C339.106 205.8 338.506 202.5 338.506 199.1C338.506 195.633 339.106 192.333 340.306 189.2C341.572 186 343.306 183.2 345.506 180.8C347.772 178.4 350.506 176.5 353.706 175.1C356.972 173.633 360.606 172.9 364.606 172.9C368.539 172.9 372.072 173.633 375.206 175.1C378.406 176.5 381.106 178.4 383.306 180.8C385.572 183.2 387.306 186 388.506 189.2C389.706 192.333 390.306 195.633 390.306 199.1ZM380.806 199.1C380.806 194.433 380.306 190.667 379.306 187.8C378.306 184.867 377.006 182.6 375.406 181C373.806 179.4 372.039 178.333 370.106 177.8C368.172 177.2 366.306 176.9 364.506 176.9C362.706 176.9 360.839 177.2 358.906 177.8C356.972 178.333 355.172 179.4 353.506 181C351.906 182.6 350.572 184.867 349.506 187.8C348.506 190.667 348.006 194.433 348.006 199.1C348.006 203.7 348.506 207.467 349.506 210.4C350.572 213.267 351.906 215.5 353.506 217.1C355.172 218.7 356.972 219.8 358.906 220.4C360.839 220.933 362.706 221.2 364.506 221.2C366.306 221.2 368.172 220.933 370.106 220.4C372.039 219.8 373.806 218.7 375.406 217.1C377.006 215.5 378.306 213.267 379.306 210.4C380.306 207.467 380.806 203.7 380.806 199.1Z"
        fill="#283673"
      />
      <path
        d="M411.822 224V195.5C411.822 194.3 411.922 192.733 412.122 190.8C412.322 188.8 412.822 186.867 413.622 185C414.489 183.067 415.789 181.433 417.522 180.1C419.255 178.7 421.689 178 424.822 178C427.089 178 428.822 178.5 430.022 179.5C431.289 180.5 432.222 181.733 432.822 183.2C433.422 184.667 433.755 186.2 433.822 187.8C433.955 189.4 434.022 190.8 434.022 192V224H442.522V195.5C442.522 194.033 442.655 192.3 442.922 190.3C443.189 188.233 443.755 186.3 444.622 184.5C445.489 182.7 446.722 181.167 448.322 179.9C449.989 178.633 452.222 178 455.022 178C457.089 178 458.755 178.3 460.022 178.9C461.289 179.5 462.255 180.4 462.922 181.6C463.655 182.8 464.122 184.267 464.322 186C464.589 187.733 464.722 189.733 464.722 192V224H473.222V189.1C473.222 187.567 473.056 185.867 472.722 184C472.389 182.067 471.655 180.3 470.522 178.7C469.455 177.033 467.856 175.667 465.722 174.6C463.656 173.467 460.889 172.9 457.422 172.9C456.422 172.9 455.255 173 453.922 173.2C452.589 173.4 451.189 173.833 449.722 174.5C448.255 175.167 446.822 176.133 445.422 177.4C444.089 178.667 442.922 180.333 441.922 182.4H441.222C440.822 181.333 440.255 180.267 439.522 179.2C438.789 178.067 437.855 177.033 436.722 176.1C435.589 175.167 434.222 174.4 432.622 173.8C431.089 173.2 429.222 172.9 427.022 172.9C426.022 172.9 424.822 173.033 423.422 173.3C422.022 173.5 420.622 173.933 419.222 174.6C417.822 175.267 416.489 176.2 415.222 177.4C414.022 178.6 413.022 180.167 412.222 182.1H411.822V174H403.322V224H411.822Z"
        fill="#283673"
      />
      <path
        d="M507.66 172.9C512.526 172.9 516.293 173.6 518.96 175C521.626 176.333 523.56 178.1 524.76 180.3C526.026 182.5 526.76 185.033 526.96 187.9C527.16 190.767 527.26 193.7 527.26 196.7V224H519.16V219.1C517.226 220.967 514.76 222.467 511.76 223.6C508.76 224.667 505.76 225.2 502.76 225.2C499.893 225.2 497.36 224.7 495.16 223.7C492.96 222.7 491.126 221.4 489.66 219.8C488.193 218.2 487.093 216.4 486.36 214.4C485.626 212.4 485.26 210.367 485.26 208.3C485.26 206.167 485.66 204.033 486.46 201.9C487.26 199.767 488.46 197.867 490.06 196.2C491.66 194.467 493.626 193.067 495.96 192C498.293 190.933 500.96 190.4 503.96 190.4C506.96 190.4 509.793 191 512.46 192.2C515.193 193.333 517.426 194.967 519.16 197.1V192.8C519.16 187.333 518.326 183.267 516.66 180.6C515.06 177.933 512.093 176.6 507.76 176.6C505.893 176.6 504.26 176.833 502.86 177.3C501.46 177.767 500.193 178.433 499.06 179.3C497.993 180.1 496.993 181.133 496.06 182.4C495.126 183.6 494.193 184.967 493.26 186.5L488.06 181.3C488.993 180.3 489.96 179.3 490.96 178.3C492.026 177.3 493.293 176.4 494.76 175.6C496.293 174.8 498.093 174.167 500.16 173.7C502.226 173.167 504.726 172.9 507.66 172.9ZM519.16 204.2C518.826 203.4 518.326 202.467 517.66 201.4C517.06 200.333 516.26 199.3 515.26 198.3C514.26 197.3 513.06 196.467 511.66 195.8C510.26 195.067 508.593 194.7 506.66 194.7C504.726 194.7 502.96 195.1 501.36 195.9C499.76 196.633 498.393 197.633 497.26 198.9C496.193 200.1 495.36 201.533 494.76 203.2C494.16 204.867 493.86 206.6 493.86 208.4C493.86 210.533 494.226 212.4 494.96 214C495.76 215.533 496.76 216.867 497.96 218C499.16 219.067 500.493 219.867 501.96 220.4C503.426 220.933 504.826 221.2 506.16 221.2C507.426 221.2 508.693 220.967 509.96 220.5C511.293 220.033 512.526 219.4 513.66 218.6C514.86 217.733 515.926 216.733 516.86 215.6C517.793 214.467 518.56 213.233 519.16 211.9V204.2Z"
        fill="#283673"
      />
      <path
        d="M585.064 224V191.6C585.064 190.4 584.964 188.767 584.764 186.7C584.564 184.567 583.897 182.5 582.764 180.5C581.697 178.433 579.964 176.667 577.564 175.2C575.164 173.667 571.764 172.9 567.364 172.9C565.43 172.833 563.264 173.233 560.864 174.1C558.464 174.9 556.097 176.467 553.764 178.8L552.164 180.4H551.764V174H543.264V224H551.764V193.1C551.764 190.5 552.13 188.267 552.864 186.4C553.597 184.533 554.597 182.967 555.864 181.7C557.13 180.433 558.564 179.5 560.164 178.9C561.83 178.3 563.53 178 565.264 178C568.064 178 570.23 178.567 571.764 179.7C573.297 180.767 574.397 182.033 575.064 183.5C575.797 184.967 576.23 186.433 576.364 187.9C576.497 189.367 576.564 190.433 576.564 191.1V224H585.064Z"
        fill="#283673"
      />
      <path
        d="M604.569 174V224H613.069V174H604.569ZM603.369 158.2C603.369 159.667 603.902 160.933 604.969 162C606.036 163.067 607.302 163.6 608.769 163.6C610.236 163.6 611.502 163.067 612.569 162C613.636 160.933 614.169 159.667 614.169 158.2C614.169 156.733 613.636 155.467 612.569 154.4C611.502 153.333 610.236 152.8 608.769 152.8C607.302 152.8 606.036 153.333 604.969 154.4C603.902 155.467 603.369 156.733 603.369 158.2Z"
        fill="#283673"
      />
      <path
        d="M650.531 172.9C655.397 172.9 659.164 173.6 661.831 175C664.497 176.333 666.431 178.1 667.631 180.3C668.897 182.5 669.631 185.033 669.831 187.9C670.031 190.767 670.131 193.7 670.131 196.7V224H662.031V219.1C660.097 220.967 657.631 222.467 654.631 223.6C651.631 224.667 648.631 225.2 645.631 225.2C642.764 225.2 640.231 224.7 638.031 223.7C635.831 222.7 633.997 221.4 632.531 219.8C631.064 218.2 629.964 216.4 629.231 214.4C628.497 212.4 628.131 210.367 628.131 208.3C628.131 206.167 628.531 204.033 629.331 201.9C630.131 199.767 631.331 197.867 632.931 196.2C634.531 194.467 636.497 193.067 638.831 192C641.164 190.933 643.831 190.4 646.831 190.4C649.831 190.4 652.664 191 655.331 192.2C658.064 193.333 660.297 194.967 662.031 197.1V192.8C662.031 187.333 661.197 183.267 659.531 180.6C657.931 177.933 654.964 176.6 650.631 176.6C648.764 176.6 647.131 176.833 645.731 177.3C644.331 177.767 643.064 178.433 641.931 179.3C640.864 180.1 639.864 181.133 638.931 182.4C637.997 183.6 637.064 184.967 636.131 186.5L630.931 181.3C631.864 180.3 632.831 179.3 633.831 178.3C634.897 177.3 636.164 176.4 637.631 175.6C639.164 174.8 640.964 174.167 643.031 173.7C645.097 173.167 647.597 172.9 650.531 172.9ZM662.031 204.2C661.697 203.4 661.197 202.467 660.531 201.4C659.931 200.333 659.131 199.3 658.131 198.3C657.131 197.3 655.931 196.467 654.531 195.8C653.131 195.067 651.464 194.7 649.531 194.7C647.597 194.7 645.831 195.1 644.231 195.9C642.631 196.633 641.264 197.633 640.131 198.9C639.064 200.1 638.231 201.533 637.631 203.2C637.031 204.867 636.731 206.6 636.731 208.4C636.731 210.533 637.097 212.4 637.831 214C638.631 215.533 639.631 216.867 640.831 218C642.031 219.067 643.364 219.867 644.831 220.4C646.297 220.933 647.697 221.2 649.031 221.2C650.297 221.2 651.564 220.967 652.831 220.5C654.164 220.033 655.397 219.4 656.531 218.6C657.731 217.733 658.797 216.733 659.731 215.6C660.664 214.467 661.431 213.233 662.031 211.9V204.2Z"
        fill="#283673"
      />
</svg>
